<svg width="1200" height="20" viewBox="0 0 1200 20" fill="none" xmlns="http://www.w3.org/2000/svg">
<line y1="10" x2="482.412" y2="10" stroke="black" stroke-width="2"/>
<line x1="717.588" y1="9" x2="1200" y2="9" stroke="black" stroke-width="2"/>
<path d="M541.905 16V4.48H551.185C551.59 4.48 551.963 4.58133 552.305 4.784C552.646 4.98667 552.918 5.25867 553.121 5.6C553.323 5.93067 553.425 6.29867 553.425 6.704V13.776C553.425 14.1813 553.323 14.5547 553.121 14.896C552.918 15.2267 552.646 15.4933 552.305 15.696C551.963 15.8987 551.59 16 551.185 16H541.905ZM544.193 13.872H551.089C551.142 13.872 551.19 13.856 551.233 13.824C551.275 13.7813 551.297 13.7333 551.297 13.68V6.8C551.297 6.74667 551.275 6.704 551.233 6.672C551.19 6.62933 551.142 6.608 551.089 6.608H544.193C544.139 6.608 544.091 6.62933 544.049 6.672C544.017 6.704 544.001 6.74667 544.001 6.8V13.68C544.001 13.7333 544.017 13.7813 544.049 13.824C544.091 13.856 544.139 13.872 544.193 13.872ZM555.248 16V6.704C555.248 6.29867 555.35 5.93067 555.552 5.6C555.755 5.25867 556.022 4.98667 556.352 4.784C556.694 4.58133 557.067 4.48 557.472 4.48H564.528C564.934 4.48 565.307 4.58133 565.648 4.784C565.99 4.98667 566.262 5.25867 566.464 5.6C566.667 5.93067 566.768 6.29867 566.768 6.704V16H564.64V12.128H557.36V16H555.248ZM557.36 10.016H564.64V6.8C564.64 6.74667 564.619 6.704 564.576 6.672C564.534 6.62933 564.486 6.608 564.432 6.608H557.552C557.499 6.608 557.451 6.62933 557.408 6.672C557.376 6.704 557.36 6.74667 557.36 6.8V10.016ZM570.767 16C570.362 16 569.989 15.8987 569.647 15.696C569.317 15.4933 569.05 15.2267 568.847 14.896C568.645 14.5547 568.543 14.1813 568.543 13.776V12.896H570.655V13.68C570.655 13.7333 570.671 13.7813 570.703 13.824C570.746 13.856 570.794 13.872 570.847 13.872H577.743C577.797 13.872 577.839 13.856 577.871 13.824C577.914 13.7813 577.935 13.7333 577.935 13.68V11.488C577.935 11.4347 577.914 11.392 577.871 11.36C577.839 11.328 577.797 11.312 577.743 11.312H570.767C570.362 11.312 569.989 11.2107 569.647 11.008C569.317 10.8053 569.05 10.5387 568.847 10.208C568.645 9.86667 568.543 9.488 568.543 9.072V6.704C568.543 6.29867 568.645 5.93067 568.847 5.6C569.05 5.25867 569.317 4.98667 569.647 4.784C569.989 4.58133 570.362 4.48 570.767 4.48H577.839C578.245 4.48 578.613 4.58133 578.943 4.784C579.285 4.98667 579.557 5.25867 579.759 5.6C579.962 5.93067 580.063 6.29867 580.063 6.704V7.584H577.935V6.8C577.935 6.74667 577.914 6.704 577.871 6.672C577.839 6.62933 577.797 6.608 577.743 6.608H570.847C570.794 6.608 570.746 6.62933 570.703 6.672C570.671 6.704 570.655 6.74667 570.655 6.8V8.992C570.655 9.04533 570.671 9.088 570.703 9.12C570.746 9.152 570.794 9.168 570.847 9.168H577.839C578.245 9.168 578.613 9.26933 578.943 9.472C579.285 9.67467 579.557 9.94667 579.759 10.288C579.962 10.6187 580.063 10.992 580.063 11.408V13.776C580.063 14.1813 579.962 14.5547 579.759 14.896C579.557 15.2267 579.285 15.4933 578.943 15.696C578.613 15.8987 578.245 16 577.839 16H570.767ZM581.404 16V4.48H583.724L590.796 12.896V4.48H592.924V16H590.604L583.516 7.568V16H581.404ZM599.655 12.32V10.224H606.199V12.32H599.655ZM614.939 16C614.534 16 614.16 15.8987 613.819 15.696C613.488 15.4933 613.222 15.2267 613.019 14.896C612.816 14.5547 612.715 14.1813 612.715 13.776V12.896H614.827V13.68C614.827 13.7333 614.843 13.7813 614.875 13.824C614.918 13.856 614.966 13.872 615.019 13.872H621.915C621.968 13.872 622.011 13.856 622.043 13.824C622.086 13.7813 622.107 13.7333 622.107 13.68V11.488C622.107 11.4347 622.086 11.392 622.043 11.36C622.011 11.328 621.968 11.312 621.915 11.312H614.939C614.534 11.312 614.16 11.2107 613.819 11.008C613.488 10.8053 613.222 10.5387 613.019 10.208C612.816 9.86667 612.715 9.488 612.715 9.072V6.704C612.715 6.29867 612.816 5.93067 613.019 5.6C613.222 5.25867 613.488 4.98667 613.819 4.784C614.16 4.58133 614.534 4.48 614.939 4.48H622.011C622.416 4.48 622.784 4.58133 623.115 4.784C623.456 4.98667 623.728 5.25867 623.931 5.6C624.134 5.93067 624.235 6.29867 624.235 6.704V7.584H622.107V6.8C622.107 6.74667 622.086 6.704 622.043 6.672C622.011 6.62933 621.968 6.608 621.915 6.608H615.019C614.966 6.608 614.918 6.62933 614.875 6.672C614.843 6.704 614.827 6.74667 614.827 6.8V8.992C614.827 9.04533 614.843 9.088 614.875 9.12C614.918 9.152 614.966 9.168 615.019 9.168H622.011C622.416 9.168 622.784 9.26933 623.115 9.472C623.456 9.67467 623.728 9.94667 623.931 10.288C624.134 10.6187 624.235 10.992 624.235 11.408V13.776C624.235 14.1813 624.134 14.5547 623.931 14.896C623.728 15.2267 623.456 15.4933 623.115 15.696C622.784 15.8987 622.416 16 622.011 16H614.939ZM625.758 16V4.48H627.854V16H625.758ZM629.404 16V4.48H631.724L635.9 9.456L640.06 4.48H642.396V16H640.268V7.552L635.9 12.752L631.516 7.568V16H629.404ZM644.28 16V4.48H654.888V6.608H646.408V9.168H653.224V11.312H646.408V13.872H654.888V16H644.28ZM656.274 16V4.48H658.37V16H656.274Z" fill="black"/>
</svg>
