<svg width="1189" height="20" viewBox="0 0 1189 20" fill="none" xmlns="http://www.w3.org/2000/svg">
<line y1="9" x2="350" y2="9" stroke="black" stroke-width="2"/>
<line x1="839" y1="9" x2="1189" y2="9" stroke="black" stroke-width="2"/>
<path d="M408.119 16L404.647 11.856H407.415L410.423 15.408V16H408.119ZM398.935 16V4.496H408.215C408.62 4.496 408.994 4.59733 409.335 4.8C409.676 5.00267 409.948 5.27467 410.151 5.616C410.354 5.94667 410.455 6.31467 410.455 6.72V9.824C410.455 10.2293 410.354 10.6027 410.151 10.944C409.948 11.2853 409.676 11.5573 409.335 11.76C408.994 11.952 408.62 12.048 408.215 12.048L401.047 12.064V16H398.935ZM401.239 9.92H408.119C408.172 9.92 408.22 9.904 408.263 9.872C408.306 9.84 408.327 9.79733 408.327 9.744V6.8C408.327 6.74667 408.306 6.704 408.263 6.672C408.22 6.62933 408.172 6.608 408.119 6.608H401.239C401.186 6.608 401.138 6.62933 401.095 6.672C401.063 6.704 401.047 6.74667 401.047 6.8V9.744C401.047 9.79733 401.063 9.84 401.095 9.872C401.138 9.904 401.186 9.92 401.239 9.92ZM412.17 16V4.48H422.778V6.608H414.298V9.168H421.114V11.312H414.298V13.872H422.778V16H412.17ZM424.404 16V4.464H426.516V13.872H435.924V16H424.404ZM436.889 16V6.704C436.889 6.29867 436.99 5.93067 437.193 5.6C437.396 5.25867 437.662 4.98667 437.993 4.784C438.334 4.58133 438.708 4.48 439.113 4.48H446.169C446.574 4.48 446.948 4.58133 447.289 4.784C447.63 4.98667 447.902 5.25867 448.105 5.6C448.308 5.93067 448.409 6.29867 448.409 6.704V16H446.281V12.128H439.001V16H436.889ZM439.001 10.016H446.281V6.8C446.281 6.74667 446.26 6.704 446.217 6.672C446.174 6.62933 446.126 6.608 446.073 6.608H439.193C439.14 6.608 439.092 6.62933 439.049 6.672C439.017 6.704 439.001 6.74667 439.001 6.8V10.016ZM454.36 16V6.608H449.656V4.48H461.176V6.608H456.488V16H454.36ZM464.565 16C464.159 16 463.786 15.8987 463.445 15.696C463.114 15.4933 462.847 15.2267 462.645 14.896C462.442 14.5547 462.341 14.1813 462.341 13.776V6.704C462.341 6.29867 462.442 5.93067 462.645 5.6C462.847 5.25867 463.114 4.98667 463.445 4.784C463.786 4.58133 464.159 4.48 464.565 4.48H471.637C472.042 4.48 472.41 4.58133 472.741 4.784C473.082 4.98667 473.354 5.25867 473.557 5.6C473.759 5.93067 473.861 6.29867 473.861 6.704V13.776C473.861 14.1813 473.759 14.5547 473.557 14.896C473.354 15.2267 473.082 15.4933 472.741 15.696C472.41 15.8987 472.042 16 471.637 16H464.565ZM464.645 13.872H471.525C471.578 13.872 471.626 13.856 471.669 13.824C471.711 13.7813 471.733 13.7333 471.733 13.68V6.8C471.733 6.74667 471.711 6.704 471.669 6.672C471.626 6.62933 471.578 6.608 471.525 6.608H464.645C464.591 6.608 464.543 6.62933 464.501 6.672C464.469 6.704 464.453 6.74667 464.453 6.8V13.68C464.453 13.7333 464.469 13.7813 464.501 13.824C464.543 13.856 464.591 13.872 464.645 13.872ZM466.933 3.52L467.685 0.591999H469.797L469.077 3.52H466.933ZM484.807 16L481.335 11.856H484.103L487.111 15.408V16H484.807ZM475.623 16V4.496H484.903C485.308 4.496 485.681 4.59733 486.023 4.8C486.364 5.00267 486.636 5.27467 486.839 5.616C487.041 5.94667 487.143 6.31467 487.143 6.72V9.824C487.143 10.2293 487.041 10.6027 486.839 10.944C486.636 11.2853 486.364 11.5573 486.023 11.76C485.681 11.952 485.308 12.048 484.903 12.048L477.735 12.064V16H475.623ZM477.927 9.92H484.807C484.86 9.92 484.908 9.904 484.951 9.872C484.993 9.84 485.015 9.79733 485.015 9.744V6.8C485.015 6.74667 484.993 6.704 484.951 6.672C484.908 6.62933 484.86 6.608 484.807 6.608H477.927C477.873 6.608 477.825 6.62933 477.783 6.672C477.751 6.704 477.735 6.74667 477.735 6.8V9.744C477.735 9.79733 477.751 9.84 477.783 9.872C477.825 9.904 477.873 9.92 477.927 9.92ZM488.602 16V4.48H490.698V16H488.602ZM494.44 16C494.034 16 493.661 15.8987 493.32 15.696C492.989 15.4933 492.722 15.2267 492.52 14.896C492.317 14.5547 492.216 14.1813 492.216 13.776V6.704C492.216 6.29867 492.317 5.93067 492.52 5.6C492.722 5.25867 492.989 4.98667 493.32 4.784C493.661 4.58133 494.034 4.48 494.44 4.48H501.512C501.917 4.48 502.285 4.58133 502.616 4.784C502.957 4.98667 503.229 5.25867 503.432 5.6C503.634 5.93067 503.736 6.29867 503.736 6.704V13.776C503.736 14.1813 503.634 14.5547 503.432 14.896C503.229 15.2267 502.957 15.4933 502.616 15.696C502.285 15.8987 501.917 16 501.512 16H494.44ZM494.52 13.872H501.4C501.453 13.872 501.501 13.856 501.544 13.824C501.586 13.7813 501.608 13.7333 501.608 13.68V6.8C501.608 6.74667 501.586 6.704 501.544 6.672C501.501 6.62933 501.453 6.608 501.4 6.608H494.52C494.466 6.608 494.418 6.62933 494.376 6.672C494.344 6.704 494.328 6.74667 494.328 6.8V13.68C494.328 13.7333 494.344 13.7813 494.376 13.824C494.418 13.856 494.466 13.872 494.52 13.872ZM510.388 16V4.48H512.708L516.884 9.456L521.044 4.48H523.38V16H521.252V7.552L516.884 12.752L512.5 7.568V16H510.388ZM525.264 16V4.48H535.872V6.608H527.392V9.168H534.208V11.312H527.392V13.872H535.872V16H525.264ZM537.482 16V4.48H539.802L546.874 12.896V4.48H549.002V16H546.682L539.594 7.568V16H537.482ZM552.97 16C552.565 16 552.192 15.8987 551.85 15.696C551.52 15.4933 551.253 15.2267 551.05 14.896C550.848 14.5547 550.746 14.1813 550.746 13.776V12.896H552.858V13.68C552.858 13.7333 552.874 13.7813 552.906 13.824C552.949 13.856 552.997 13.872 553.05 13.872H559.946C560 13.872 560.042 13.856 560.074 13.824C560.117 13.7813 560.138 13.7333 560.138 13.68V11.488C560.138 11.4347 560.117 11.392 560.074 11.36C560.042 11.328 560 11.312 559.946 11.312H552.97C552.565 11.312 552.192 11.2107 551.85 11.008C551.52 10.8053 551.253 10.5387 551.05 10.208C550.848 9.86667 550.746 9.488 550.746 9.072V6.704C550.746 6.29867 550.848 5.93067 551.05 5.6C551.253 5.25867 551.52 4.98667 551.85 4.784C552.192 4.58133 552.565 4.48 552.97 4.48H560.042C560.448 4.48 560.816 4.58133 561.146 4.784C561.488 4.98667 561.76 5.25867 561.962 5.6C562.165 5.93067 562.266 6.29867 562.266 6.704V7.584H560.138V6.8C560.138 6.74667 560.117 6.704 560.074 6.672C560.042 6.62933 560 6.608 559.946 6.608H553.05C552.997 6.608 552.949 6.62933 552.906 6.672C552.874 6.704 552.858 6.74667 552.858 6.8V8.992C552.858 9.04533 552.874 9.088 552.906 9.12C552.949 9.152 552.997 9.168 553.05 9.168H560.042C560.448 9.168 560.816 9.26933 561.146 9.472C561.488 9.67467 561.76 9.94667 561.962 10.288C562.165 10.6187 562.266 10.992 562.266 11.408V13.776C562.266 14.1813 562.165 14.5547 561.962 14.896C561.76 15.2267 561.488 15.4933 561.146 15.696C560.816 15.8987 560.448 16 560.042 16H552.97ZM564.045 16V6.704C564.045 6.29867 564.147 5.93067 564.349 5.6C564.552 5.25867 564.819 4.98667 565.149 4.784C565.491 4.58133 565.864 4.48 566.269 4.48H573.325C573.731 4.48 574.104 4.58133 574.445 4.784C574.787 4.98667 575.059 5.25867 575.261 5.6C575.464 5.93067 575.565 6.29867 575.565 6.704V16H573.437V12.128H566.157V16H564.045ZM566.157 10.016H573.437V6.8C573.437 6.74667 573.416 6.704 573.373 6.672C573.331 6.62933 573.283 6.608 573.229 6.608H566.349C566.296 6.608 566.248 6.62933 566.205 6.672C566.173 6.704 566.157 6.74667 566.157 6.8V10.016ZM577.404 16V4.464H579.516V13.872H588.924V16H577.404ZM594.78 16V4.48H604.06C604.465 4.48 604.838 4.58133 605.18 4.784C605.521 4.98667 605.793 5.25867 605.996 5.6C606.198 5.93067 606.3 6.29867 606.3 6.704V13.776C606.3 14.1813 606.198 14.5547 605.996 14.896C605.793 15.2267 605.521 15.4933 605.18 15.696C604.838 15.8987 604.465 16 604.06 16H594.78ZM597.068 13.872H603.964C604.017 13.872 604.065 13.856 604.108 13.824C604.15 13.7813 604.172 13.7333 604.172 13.68V6.8C604.172 6.74667 604.15 6.704 604.108 6.672C604.065 6.62933 604.017 6.608 603.964 6.608H597.068C597.014 6.608 596.966 6.62933 596.924 6.672C596.892 6.704 596.876 6.74667 596.876 6.8V13.68C596.876 13.7333 596.892 13.7813 596.924 13.824C596.966 13.856 597.014 13.872 597.068 13.872ZM608.123 16V4.48H618.731V6.608H610.251V9.168H617.067V11.312H610.251V13.872H618.731V16H608.123ZM634.416 16L630.944 11.856H633.712L636.72 15.408V16H634.416ZM625.232 16V4.496H634.512C634.917 4.496 635.291 4.59733 635.632 4.8C635.973 5.00267 636.245 5.27467 636.448 5.616C636.651 5.94667 636.752 6.31467 636.752 6.72V9.824C636.752 10.2293 636.651 10.6027 636.448 10.944C636.245 11.2853 635.973 11.5573 635.632 11.76C635.291 11.952 634.917 12.048 634.512 12.048L627.344 12.064V16H625.232ZM627.536 9.92H634.416C634.469 9.92 634.517 9.904 634.56 9.872C634.603 9.84 634.624 9.79733 634.624 9.744V6.8C634.624 6.74667 634.603 6.704 634.56 6.672C634.517 6.62933 634.469 6.608 634.416 6.608H627.536C627.483 6.608 627.435 6.62933 627.392 6.672C627.36 6.704 627.344 6.74667 627.344 6.8V9.744C627.344 9.79733 627.36 9.84 627.392 9.872C627.435 9.904 627.483 9.92 627.536 9.92ZM638.467 16V4.48H649.075V6.608H640.595V9.168H647.411V11.312H640.595V13.872H649.075V16H638.467ZM652.909 16C652.504 16 652.13 15.8987 651.789 15.696C651.458 15.4933 651.192 15.2267 650.989 14.896C650.786 14.5547 650.685 14.1813 650.685 13.776V6.704C650.685 6.29867 650.786 5.93067 650.989 5.6C651.192 5.25867 651.458 4.98667 651.789 4.784C652.13 4.58133 652.504 4.48 652.909 4.48H662.173V6.608H653.357C653.186 6.608 653.048 6.656 652.941 6.752C652.845 6.848 652.797 6.98667 652.797 7.168V13.312C652.797 13.4827 652.845 13.6213 652.941 13.728C653.048 13.824 653.186 13.872 653.357 13.872H662.173V16H652.909ZM663.873 16V4.48H674.481V6.608H666.001V9.168H672.817V11.312H666.001V13.872H674.481V16H663.873ZM675.867 16V4.48H677.963V16H675.867ZM683.86 16V6.608H679.156V4.48H690.676V6.608H685.988V16H683.86ZM691.905 16V6.704C691.905 6.29867 692.006 5.93067 692.209 5.6C692.411 5.25867 692.678 4.98667 693.009 4.784C693.35 4.58133 693.723 4.48 694.129 4.48H701.185C701.59 4.48 701.963 4.58133 702.305 4.784C702.646 4.98667 702.918 5.25867 703.121 5.6C703.323 5.93067 703.425 6.29867 703.425 6.704V16H701.297V12.128H694.017V16H691.905ZM694.017 10.016H701.297V6.8C701.297 6.74667 701.275 6.704 701.233 6.672C701.19 6.62933 701.142 6.608 701.089 6.608H694.209C694.155 6.608 694.107 6.62933 694.065 6.672C694.033 6.704 694.017 6.74667 694.017 6.8V10.016ZM707.424 16C707.018 16 706.645 15.8987 706.304 15.696C705.973 15.4933 705.706 15.2267 705.504 14.896C705.301 14.5547 705.2 14.1813 705.2 13.776V12.896H707.312V13.68C707.312 13.7333 707.328 13.7813 707.36 13.824C707.402 13.856 707.45 13.872 707.504 13.872H714.4C714.453 13.872 714.496 13.856 714.528 13.824C714.57 13.7813 714.592 13.7333 714.592 13.68V11.488C714.592 11.4347 714.57 11.392 714.528 11.36C714.496 11.328 714.453 11.312 714.4 11.312H707.424C707.018 11.312 706.645 11.2107 706.304 11.008C705.973 10.8053 705.706 10.5387 705.504 10.208C705.301 9.86667 705.2 9.488 705.2 9.072V6.704C705.2 6.29867 705.301 5.93067 705.504 5.6C705.706 5.25867 705.973 4.98667 706.304 4.784C706.645 4.58133 707.018 4.48 707.424 4.48H714.496C714.901 4.48 715.269 4.58133 715.6 4.784C715.941 4.98667 716.213 5.25867 716.416 5.6C716.618 5.93067 716.72 6.29867 716.72 6.704V7.584H714.592V6.8C714.592 6.74667 714.57 6.704 714.528 6.672C714.496 6.62933 714.453 6.608 714.4 6.608H707.504C707.45 6.608 707.402 6.62933 707.36 6.672C707.328 6.704 707.312 6.74667 707.312 6.8V8.992C707.312 9.04533 707.328 9.088 707.36 9.12C707.402 9.152 707.45 9.168 707.504 9.168H714.496C714.901 9.168 715.269 9.26933 715.6 9.472C715.941 9.67467 716.213 9.94667 716.416 10.288C716.618 10.6187 716.72 10.992 716.72 11.408V13.776C716.72 14.1813 716.618 14.5547 716.416 14.896C716.213 15.2267 715.941 15.4933 715.6 15.696C715.269 15.8987 714.901 16 714.496 16H707.424ZM723.405 16V4.48H732.237C732.642 4.48 733.01 4.58133 733.341 4.784C733.682 4.98667 733.954 5.25867 734.157 5.6C734.36 5.93067 734.461 6.29867 734.461 6.704V8.96C734.461 9.09867 734.45 9.232 734.429 9.36C734.408 9.488 734.37 9.61067 734.317 9.728C734.498 9.97333 734.642 10.2293 734.749 10.496C734.866 10.7627 734.925 11.0293 734.925 11.296V13.776C734.925 14.1813 734.824 14.5547 734.621 14.896C734.418 15.2267 734.146 15.4933 733.805 15.696C733.464 15.8987 733.09 16 732.685 16H723.405ZM725.709 13.872H732.589C732.642 13.872 732.69 13.856 732.733 13.824C732.776 13.7813 732.797 13.7333 732.797 13.68V11.392C732.797 11.3387 732.776 11.296 732.733 11.264C732.69 11.2213 732.642 11.2 732.589 11.2H725.709C725.656 11.2 725.608 11.2213 725.565 11.264C725.533 11.296 725.517 11.3387 725.517 11.392V13.68C725.517 13.7333 725.533 13.7813 725.565 13.824C725.608 13.856 725.656 13.872 725.709 13.872ZM725.709 9.072H732.141C732.194 9.072 732.237 9.056 732.269 9.024C732.301 8.98133 732.317 8.93333 732.317 8.88V6.8C732.317 6.74667 732.301 6.704 732.269 6.672C732.237 6.62933 732.194 6.608 732.141 6.608H725.709C725.656 6.608 725.608 6.62933 725.565 6.672C725.533 6.704 725.517 6.74667 725.517 6.8V8.88C725.517 8.93333 725.533 8.98133 725.565 9.024C725.608 9.056 725.656 9.072 725.709 9.072ZM745.853 16L742.381 11.856H745.149L748.157 15.408V16H745.853ZM736.669 16V4.496H745.949C746.355 4.496 746.728 4.59733 747.069 4.8C747.411 5.00267 747.683 5.27467 747.885 5.616C748.088 5.94667 748.189 6.31467 748.189 6.72V9.824C748.189 10.2293 748.088 10.6027 747.885 10.944C747.683 11.2853 747.411 11.5573 747.069 11.76C746.728 11.952 746.355 12.048 745.949 12.048L738.781 12.064V16H736.669ZM738.973 9.92H745.853C745.907 9.92 745.955 9.904 745.997 9.872C746.04 9.84 746.061 9.79733 746.061 9.744V6.8C746.061 6.74667 746.04 6.704 745.997 6.672C745.955 6.62933 745.907 6.608 745.853 6.608H738.973C738.92 6.608 738.872 6.62933 738.829 6.672C738.797 6.704 738.781 6.74667 738.781 6.8V9.744C738.781 9.79733 738.797 9.84 738.829 9.872C738.872 9.904 738.92 9.92 738.973 9.92ZM752.065 16C751.659 16 751.286 15.8987 750.945 15.696C750.614 15.4933 750.347 15.2267 750.145 14.896C749.942 14.5547 749.841 14.1813 749.841 13.776V4.48H751.953V13.68C751.953 13.7333 751.969 13.7813 752.001 13.824C752.043 13.856 752.091 13.872 752.145 13.872H759.025C759.078 13.872 759.126 13.856 759.169 13.824C759.211 13.7813 759.233 13.7333 759.233 13.68V4.48H761.361V13.776C761.361 14.1813 761.259 14.5547 761.057 14.896C760.854 15.2267 760.582 15.4933 760.241 15.696C759.91 15.8987 759.542 16 759.137 16H752.065ZM767.251 16V6.608H762.547V4.48H774.067V6.608H769.379V16H767.251ZM775.295 16V6.704C775.295 6.29867 775.397 5.93067 775.599 5.6C775.802 5.25867 776.069 4.98667 776.399 4.784C776.741 4.58133 777.114 4.48 777.519 4.48H784.575C784.981 4.48 785.354 4.58133 785.695 4.784C786.037 4.98667 786.309 5.25867 786.511 5.6C786.714 5.93067 786.815 6.29867 786.815 6.704V16H784.687V12.128H777.407V16H775.295ZM777.407 10.016H784.687V6.8C784.687 6.74667 784.666 6.704 784.623 6.672C784.581 6.62933 784.533 6.608 784.479 6.608H777.599C777.546 6.608 777.498 6.62933 777.455 6.672C777.423 6.704 777.407 6.74667 777.407 6.8V10.016ZM790.814 16C790.409 16 790.036 15.8987 789.694 15.696C789.364 15.4933 789.097 15.2267 788.894 14.896C788.692 14.5547 788.59 14.1813 788.59 13.776V12.896H790.702V13.68C790.702 13.7333 790.718 13.7813 790.75 13.824C790.793 13.856 790.841 13.872 790.894 13.872H797.79C797.844 13.872 797.886 13.856 797.918 13.824C797.961 13.7813 797.982 13.7333 797.982 13.68V11.488C797.982 11.4347 797.961 11.392 797.918 11.36C797.886 11.328 797.844 11.312 797.79 11.312H790.814C790.409 11.312 790.036 11.2107 789.694 11.008C789.364 10.8053 789.097 10.5387 788.894 10.208C788.692 9.86667 788.59 9.488 788.59 9.072V6.704C788.59 6.29867 788.692 5.93067 788.894 5.6C789.097 5.25867 789.364 4.98667 789.694 4.784C790.036 4.58133 790.409 4.48 790.814 4.48H797.886C798.292 4.48 798.66 4.58133 798.99 4.784C799.332 4.98667 799.604 5.25867 799.806 5.6C800.009 5.93067 800.11 6.29867 800.11 6.704V7.584H797.982V6.8C797.982 6.74667 797.961 6.704 797.918 6.672C797.886 6.62933 797.844 6.608 797.79 6.608H790.894C790.841 6.608 790.793 6.62933 790.75 6.672C790.718 6.704 790.702 6.74667 790.702 6.8V8.992C790.702 9.04533 790.718 9.088 790.75 9.12C790.793 9.152 790.841 9.168 790.894 9.168H797.886C798.292 9.168 798.66 9.26933 798.99 9.472C799.332 9.67467 799.604 9.94667 799.806 10.288C800.009 10.6187 800.11 10.992 800.11 11.408V13.776C800.11 14.1813 800.009 14.5547 799.806 14.896C799.604 15.2267 799.332 15.4933 798.99 15.696C798.66 15.8987 798.292 16 797.886 16H790.814Z" fill="black"/>
</svg>
